<svg width="193" height="64" viewBox="0 0 193 64" fill="none" xmlns="http://www.w3.org/2000/svg">
<path d="M111.504 16.32V48H110.208V21.648L110.304 17.856L97.872 48H96.48L84.048 17.856H84L84.144 21.648V48H82.848V16.32H84.768L96.24 43.776L97.152 46.416H97.2L98.112 43.824L109.584 16.32H111.504ZM121.144 19.296C120.728 19.296 120.392 19.168 120.136 18.912C119.88 18.656 119.752 18.32 119.752 17.904C119.752 17.488 119.88 17.152 120.136 16.896C120.392 16.64 120.744 16.512 121.192 16.512C121.608 16.512 121.944 16.64 122.2 16.896C122.456 17.152 122.584 17.488 122.584 17.904C122.584 18.32 122.456 18.656 122.2 18.912C121.944 19.168 121.592 19.296 121.144 19.296ZM121.864 24V48H120.52V24H121.864ZM130.176 48V24H131.424L131.472 30.48L131.328 30.24C131.712 28.928 132.352 27.76 133.248 26.736C134.176 25.712 135.296 24.928 136.608 24.384C137.952 23.808 139.44 23.52 141.072 23.52C142.896 23.52 144.48 23.872 145.824 24.576C147.168 25.248 148.208 26.224 148.944 27.504C149.712 28.784 150.096 30.384 150.096 32.304V48H148.752V32.64C148.752 30.048 148.032 28.08 146.592 26.736C145.184 25.392 143.28 24.72 140.88 24.72C139.152 24.72 137.568 25.12 136.128 25.92C134.72 26.72 133.6 27.808 132.768 29.184C131.936 30.56 131.52 32.128 131.52 33.888V48H130.176ZM182.067 16.32V36.624C182.067 40.464 181.011 43.408 178.899 45.456C176.787 47.472 173.827 48.48 170.019 48.48C166.243 48.48 163.283 47.472 161.139 45.456C159.027 43.408 157.971 40.464 157.971 36.624V16.32H159.315V36.432C159.315 39.92 160.243 42.608 162.099 44.496C163.987 46.352 166.627 47.28 170.019 47.28C173.443 47.28 176.083 46.352 177.939 44.496C179.795 42.608 180.723 39.92 180.723 36.432V16.32H182.067ZM192.333 16.32V48H190.989V16.32H192.333Z" fill="black"/>
<circle cx="32" cy="32" r="32" fill="white"/>
<path fill-rule="evenodd" clip-rule="evenodd" d="M16 59.719C25.5648 54.186 32 43.8445 32 32C32 20.1555 25.5648 9.81398 16 4.28103C20.7068 1.55831 26.1714 0 32 0C49.6731 0 64 14.3269 64 32C64 49.6731 49.6731 64 32 64C26.1714 64 20.7068 62.4417 16 59.719Z" fill="black"/>
<circle cx="32" cy="32" r="8" fill="white"/>
<path fill-rule="evenodd" clip-rule="evenodd" d="M30.9776 39.9353C31.6449 37.3617 32 34.6623 32 31.8799C32 29.1814 31.666 26.5608 31.037 24.0574C27.0728 24.533 24 27.9076 24 32C24 36.0719 27.0421 39.4332 30.9776 39.9353Z" fill="black"/>
</svg>
