<svg width="196" height="64" viewBox="0 0 196 64" fill="none" xmlns="http://www.w3.org/2000/svg">
<circle cx="32" cy="32" r="32" fill="black"/>
<circle cx="32" cy="32" r="30.09" fill="white"/>
<path fill-rule="evenodd" clip-rule="evenodd" d="M16.955 58.0645C25.9489 52.8618 32 43.1375 32 32C32 20.8625 25.9489 11.1382 16.955 5.93551C21.3808 3.3753 26.5193 1.91 32 1.91C48.6182 1.91 62.09 15.3818 62.09 32C62.09 48.6182 48.6182 62.09 32 62.09C26.5193 62.09 21.3808 60.6247 16.955 58.0645Z" fill="black"/>
<circle cx="32" cy="32" r="7.5225" fill="white"/>
<path fill-rule="evenodd" clip-rule="evenodd" d="M31.0667 39.4652C31.6761 37.0781 32 34.5769 32 32C32 29.4231 31.6761 26.9219 31.0667 24.5348C27.3526 24.9944 24.4775 28.1615 24.4775 32C24.4775 35.8385 27.3526 39.0056 31.0667 39.4652Z" fill="black"/>
<path d="M109.504 16.32V48H108.208V21.648L108.304 17.856L95.872 48H94.48L82.048 17.856H82L82.144 21.648V48H80.848V16.32H82.768L94.24 43.776L95.152 46.416H95.2L96.112 43.824L107.584 16.32H109.504ZM119.144 19.296C118.728 19.296 118.392 19.168 118.136 18.912C117.88 18.656 117.752 18.32 117.752 17.904C117.752 17.488 117.88 17.152 118.136 16.896C118.392 16.64 118.744 16.512 119.192 16.512C119.608 16.512 119.944 16.64 120.2 16.896C120.456 17.152 120.584 17.488 120.584 17.904C120.584 18.32 120.456 18.656 120.2 18.912C119.944 19.168 119.592 19.296 119.144 19.296ZM119.864 24V48H118.52V24H119.864ZM128.176 48V24H129.424L129.472 30.48L129.328 30.24C129.712 28.928 130.352 27.76 131.248 26.736C132.176 25.712 133.296 24.928 134.608 24.384C135.952 23.808 137.44 23.52 139.072 23.52C140.896 23.52 142.48 23.872 143.824 24.576C145.168 25.248 146.208 26.224 146.944 27.504C147.712 28.784 148.096 30.384 148.096 32.304V48H146.752V32.64C146.752 30.048 146.032 28.08 144.592 26.736C143.184 25.392 141.28 24.72 138.88 24.72C137.152 24.72 135.568 25.12 134.128 25.92C132.72 26.72 131.6 27.808 130.768 29.184C129.936 30.56 129.52 32.128 129.52 33.888V48H128.176ZM180.067 16.32V36.624C180.067 40.464 179.011 43.408 176.899 45.456C174.787 47.472 171.827 48.48 168.019 48.48C164.243 48.48 161.283 47.472 159.139 45.456C157.027 43.408 155.971 40.464 155.971 36.624V16.32H157.315V36.432C157.315 39.92 158.243 42.608 160.099 44.496C161.987 46.352 164.627 47.28 168.019 47.28C171.443 47.28 174.083 46.352 175.939 44.496C177.795 42.608 178.723 39.92 178.723 36.432V16.32H180.067ZM190.333 16.32V48H188.989V16.32H190.333Z" fill="black"/>
</svg>
